<?xml version="1.0" encoding="UTF-8"?>
<svg width="128px" height="128px" viewBox="0 0 128 128" version="1.1" xmlns="http://www.w3.org/2000/svg" xmlns:xlink="http://www.w3.org/1999/xlink">
    <!-- Generator: Sketch 60.1 (88133) - https://sketch.com -->
    <title>icon</title>
    <desc>Created with Sketch.</desc>
    <defs>
        <linearGradient x1="95.4222227%" y1="70.9585993%" x2="4.61731275%" y2="29.0390274%" id="linearGradient-1">
            <stop stop-color="#EFC141" offset="0%"></stop>
            <stop stop-color="#EFB83F" offset="24%"></stop>
            <stop stop-color="#F1A03B" offset="62%"></stop>
            <stop stop-color="#F28235" offset="100%"></stop>
        </linearGradient>
    </defs>
    <g id="icon" stroke="none" stroke-width="1" fill="none" fill-rule="evenodd">
        <rect id="Rectangle-Copy-2" fill="url(#linearGradient-1)" x="0" y="0" width="128" height="128"></rect>
        <g id="Group-2-Copy-3" transform="translate(13.000000, 13.000000)" fill="#FFFFFF" fill-rule="nonzero">
            <g id="Group">
                <path d="M87.3830115,75.7374941 L87.5423079,82.1252815 C87.5502727,82.3323669 87.6139913,82.6748543 88.0440917,82.6748543 L88.1635641,82.6748543 L94.479668,81.6234977 L87.3830115,75.7374941 Z M84.5528798,16.7897027 C68.0160514,0.36175721 42.0912922,-1.87409277 22.9859528,11.4799365 L21.6170514,9.52147684 C41.6697629,-4.49473566 68.8800474,-2.14801709 86.2368838,15.0945373 C103.087321,31.8340267 105.960093,57.9529279 93.4100119,77.8953386 L97.1319538,80.9783471 C98.4541143,82.0695278 98.1514511,83.2005325 96.4549439,83.4793013 L88.5777348,84.7855321 C87.7962439,84.9342826 86.9890303,84.7287148 86.373879,84.2242908 C85.7587277,83.7198667 85.3990206,82.9685594 85.3918059,82.1730705 L85.2245447,74.2082483 C85.2006502,73.1091028 85.6307506,72.5037763 86.2918308,72.5037763 L86.2997957,72.4798819 C86.7782221,72.5235998 87.2275853,72.7286217 87.5741672,73.0613139 L91.5533853,76.3574329 C103.318475,57.391468 100.532392,32.6640019 84.5528798,16.7897027 Z M10.5829779,24.5518252 C-1.82044533,43.6001791 0.76381518,68.8649071 17.0086498,85.0086095 C33.7011087,101.59715 59.9339134,103.702052 79.05788,89.9873976 L80.4503913,91.929141 C60.3781288,106.323861 32.8445239,104.114583 15.3243398,86.7034709 C-1.79172904,69.6939582 -4.4591216,43.0372121 8.73124419,23.0179874 L4.79918916,19.7609202 C3.4849935,18.6617747 3.78765675,17.5387348 5.48416387,17.259966 L13.361373,15.9537352 C13.5280005,15.9351304 13.6960228,15.9324634 13.8631568,15.9457704 L13.8790865,15.9296444 C14.5851289,15.9212031 15.2647784,16.197865 15.7640632,16.6971498 C16.2633479,17.1964346 16.5400098,17.8760841 16.5313722,18.5821265 L16.6986335,26.5469487 C16.722528,27.654059 16.2924276,28.2593855 15.6313473,28.2593855 C15.1529209,28.2156676 14.7035577,28.0106456 14.3569758,27.6779534 L10.5829779,24.5518252 Z M52.1058667,74.5751768 L52.1058667,48.6570987 L49.047375,48.6570987 L49.047375,74.5751768 L52.1058667,74.5751768 Z M53.8262683,74.5752268 L68.6781367,74.5756586 C69.54335,74.6091067 70.2721207,73.9353733 70.3054854,73.1250325 L70.3054854,48.6570987 L53.8262683,48.6570987 L53.8262683,74.5752268 Z M47.3269734,74.5750379 L47.3269734,48.6570987 L31.644177,48.6570987 L31.6432751,73.0735144 C31.6754154,73.9325458 32.3959899,74.6039472 33.3009215,74.5746301 L47.3269734,74.5750379 Z M44.3852891,38.4461967 C42.1549788,37.7384259 40.0887239,36.5572423 38.3426581,34.9684324 C37.1507831,33.924277 36.2439539,32.7737472 35.5547371,31.4929687 C34.7955266,30.0821201 34.5459399,29.2851514 33.8691903,26.6190081 C33.41677,24.8366391 33.0981798,24.078475 32.5068903,23.5208666 L30.7254643,21.8409142 L33.0859943,21.1900556 C33.2359263,21.1487155 33.4779748,21.096472 33.8042412,21.0473772 C37.6831914,20.4636941 42.3400795,21.5872177 46.911365,25.7537999 C47.3522342,26.1771123 47.759713,26.6117017 48.1345819,27.0568443 C49.4315616,28.5969587 50.2955159,30.1646863 50.8147322,31.7233886 C51.2163745,30.9179928 51.7287588,30.1112799 52.3688578,29.3091203 C52.9889798,28.5319957 53.7139121,27.794558 54.5774665,27.0787836 C58.9670083,23.633346 63.2917438,22.8190275 66.9009149,23.5253983 C67.3281606,23.6090169 67.644133,23.6973815 67.8376057,23.7662589 L70.1378304,24.5851522 L68.2478341,26.1309639 C67.6921274,26.5854716 67.3455229,27.2567896 66.834637,28.782916 C66.0455086,31.1402128 65.9386882,31.4305105 65.3814819,32.4852617 C64.5814898,33.9995891 63.5159547,35.2891676 62.0606177,36.3916945 C60.9869777,37.2330487 59.8145529,37.9214901 58.5767379,38.4461967 L75.0445546,38.4461967 C77.1384071,38.4461967 78.83581,40.1435995 78.83581,42.237452 L78.83581,44.8658434 C78.83581,46.9596959 77.1384071,48.6570987 75.0445546,48.6570987 L73.0612445,48.6570987 L73.0602224,73.1798654 C72.9652495,75.5645828 70.9565057,77.4216246 68.6249079,77.3304586 L33.3466952,77.3296981 C30.9708602,77.4086658 28.9782513,75.5520354 28.8884101,73.1250325 L28.8884101,48.6570987 L27.1042899,48.6570987 C25.0104374,48.6570987 23.3130345,46.9596959 23.3130345,44.8658434 L23.3130345,42.237452 C23.3130345,40.1435995 25.0104374,38.4461967 27.1042899,38.4461967 L44.3852891,38.4461967 L44.3852891,38.4461967 Z M75.0445546,45.9012702 C75.6164051,45.9012702 76.0799815,45.4376938 76.0799815,44.8658434 L76.0799815,42.237452 C76.0799815,41.6656016 75.6164051,41.2020252 75.0445546,41.2020252 L27.1042899,41.2020252 C26.5324394,41.2020252 26.068863,41.6656016 26.068863,42.237452 L26.068863,44.8658434 C26.068863,45.4376938 26.5324394,45.9012702 27.1042899,45.9012702 L75.0445546,45.9012702 Z M60.3785268,34.2088846 C61.5200394,33.343924 62.3271638,32.3670907 62.9447767,31.1979939 C63.4009402,30.3345094 63.4911544,30.0893411 64.2213491,27.908092 C64.4668929,27.1745996 64.6940629,26.571514 64.9369426,26.0581173 C62.368792,25.9401461 59.4003673,26.7964617 56.3080381,29.2231533 C55.6177042,29.7958747 55.0250726,30.3987295 54.52293,31.0280048 C52.9285376,33.0260659 52.350331,35.0269938 52.3477538,36.9081294 C55.2453654,36.9600898 58.0761601,36.0129015 60.3785268,34.2088846 Z M46.0266456,28.8320049 C45.7146383,28.4615081 45.3736954,28.0978814 45.0288907,27.76616 C41.7971693,24.8209951 38.607574,23.6880456 35.8366198,23.6602764 C36.0867269,24.276662 36.3046841,25.0127097 36.5403116,25.940995 C37.1582149,28.3753059 37.3693478,29.0494856 37.981507,30.1870672 C38.5167666,31.1817455 39.218188,32.0716664 40.1779368,32.9127882 C42.5121485,35.0365044 45.5097296,36.2823464 48.6573356,36.4411264 C48.8473866,34.003968 48.1909098,31.401987 46.0266456,28.8320049 Z M65.9566925,67.7009886 C65.9566925,67.2259128 66.3418175,66.8407878 66.8168933,66.8407878 C67.2919691,66.8407878 67.6770941,67.2259128 67.6770941,67.7009886 L67.6770196,71.1132861 C67.6664681,71.9151338 67.0134095,72.5595995 66.2115668,72.5595301 L61.3291308,72.5595301 C60.854055,72.5595301 60.46893,72.1744051 60.46893,71.6993293 C60.46893,71.2242535 60.854055,70.8391285 61.3291308,70.8391285 L65.9566925,70.8391285 L65.9566925,67.7009886 Z M13.8631568,18.0564482 L13.8631568,18.0962723 L13.71979,18.0962723 L7.40368602,19.1396641 L14.5003426,24.9699139 L14.3649406,18.5980561 C14.3569758,18.3989356 14.2932572,18.0564482 13.8631568,18.0564482 Z M66.1080625,64.5628486 C66.1080625,64.0965705 66.4860555,63.7185775 66.9523336,63.7185775 C67.4186117,63.7185775 67.7966048,64.0965705 67.7966048,64.5628486 C67.7966048,65.0291267 67.4186117,65.4071198 66.9523336,65.4071198 C66.7277671,65.4092689 66.5117724,65.3210094 66.3529726,65.1622096 C66.1941728,65.0034098 66.1059134,64.7874152 66.1080625,64.5628486 L66.1080625,64.5628486 Z" id="Shape"></path>
            </g>
        </g>
    </g>
</svg>